<svg xmlns="http://www.w3.org/2000/svg" viewBox="0 0 32 32" width="32" height="32">
  <defs>
    <linearGradient id="chatGradient" x1="0%" y1="0%" x2="100%" y2="100%">
      <stop offset="0%" style="stop-color:#8b5cf6;stop-opacity:1" />
      <stop offset="100%" style="stop-color:#3b82f6;stop-opacity:1" />
    </linearGradient>
  </defs>
  
  <!-- Chat bubble -->
  <path d="M16 3C9.373 3 4 8.373 4 15c0 2.891 1.104 5.513 2.91 7.518L6 26l3.848-1.924C11.052 24.37 13.468 25 16 25c6.627 0 12-5.373 12-12S22.627 3 16 3z" 
        fill="url(#chatGradient)"/>
  
  <!-- Neural network nodes -->
  <circle cx="11" cy="13" r="1.8" fill="#fff" opacity="0.9"/>
  <circle cx="16" cy="11" r="1.8" fill="#fff" opacity="0.9"/>
  <circle cx="21" cy="13" r="1.8" fill="#fff" opacity="0.9"/>
  <circle cx="13.5" cy="17" r="1.8" fill="#fff" opacity="0.9"/>
  <circle cx="18.5" cy="17" r="1.8" fill="#fff" opacity="0.9"/>
  
  <!-- Neural network connections -->
  <line x1="11" y1="13" x2="16" y2="11" stroke="#fff" stroke-width="0.6" opacity="0.7"/>
  <line x1="16" y1="11" x2="21" y2="13" stroke="#fff" stroke-width="0.6" opacity="0.7"/>
  <line x1="11" y1="13" x2="13.5" y2="17" stroke="#fff" stroke-width="0.6" opacity="0.7"/>
  <line x1="16" y1="11" x2="13.5" y2="17" stroke="#fff" stroke-width="0.6" opacity="0.7"/>
  <line x1="16" y1="11" x2="18.5" y2="17" stroke="#fff" stroke-width="0.6" opacity="0.7"/>
  <line x1="21" y1="13" x2="18.5" y2="17" stroke="#fff" stroke-width="0.6" opacity="0.7"/>
  <line x1="13.5" y1="17" x2="18.5" y2="17" stroke="#fff" stroke-width="0.6" opacity="0.7"/>
</svg>